# xmcd
#
# Track frame offsets:
#	150
#	31735
#	55555
#	79267
#	92942
#	108192
#	135200
#	155475
#	184860
#	208007
#	228252
#
# Disc length: 3406 seconds
#
# Revision: 2
# Processed by: cddbd v1.4PL0 Copyright (c) Steve Scherf et al.
# Submitted via: audiograbber 1.81.02
#
DISCID=800d4c0b
DTITLE=Lightnin' Hopkins - Cadillac Man
DYEAR=1994
DGENRE=Blues
TTITLE0=Big Black Cadillac Blues
TTITLE1=Early in the Mornin' Blues
TTITLE2=I've Been Bucked and Scorned
TTITLE3=Stool Pigeon Blues
TTITLE4=Ball of Twine
TTITLE5=I Heard My Children Crying
TTITLE6=Leave Jike Mary Alone
TTITLE7=You Treat Po' Lightnin' Wrong
TTITLE8=I'm Gonna Meet My Baby Somewhere
TTITLE9=Don't Treat That Man Way You Treat Me
TTITLE10=There's Good Rockin' Tonight
EXTD=
EXTT0=
EXTT1=
EXTT2=
EXTT3=
EXTT4=
EXTT5=
EXTT6=
EXTT7=
EXTT8=
EXTT9=
EXTT10=
PLAYORDER=
